{
	"patcher" : 	{
		"fileversion" : 1,
		"appversion" : 		{
			"major" : 6,
			"minor" : 1,
			"revision" : 6,
			"architecture" : "x64"
		}
,
		"rect" : [ 24.0, 44.0, 1137.0, 626.0 ],
		"bgcolor" : [ 1.0, 1.0, 1.0, 0.0 ],
		"bglocked" : 0,
		"openinpresentation" : 1,
		"default_fontsize" : 11.595187,
		"default_fontface" : 0,
		"default_fontname" : "Arial",
		"gridonopen" : 0,
		"gridsize" : [ 15.0, 15.0 ],
		"gridsnaponopen" : 0,
		"statusbarvisible" : 2,
		"toolbarvisible" : 1,
		"boxanimatetime" : 200,
		"imprint" : 0,
		"enablehscroll" : 1,
		"enablevscroll" : 1,
		"devicewidth" : 0.0,
		"description" : "",
		"digest" : "",
		"tags" : "",
		"boxes" : [ 			{
				"box" : 				{
					"fontname" : "Arial",
					"fontsize" : 13.0,
					"frgb" : 0.0,
					"id" : "obj-104",
					"linecount" : 4,
					"maxclass" : "comment",
					"numinlets" : 1,
					"numoutlets" : 0,
					"patching_rect" : [ 973.099976, 379.500061, 158.0, 66.0 ],
					"text" : "The \"prepend set\" outlets permit external controls that are updated but don't feed back. ",
					"textcolor" : [ 0.501961, 0.501961, 0.501961, 1.0 ]
				}

			}
, 			{
				"box" : 				{
					"bubble" : 1,
					"bubbleside" : 0,
					"fontname" : "Arial",
					"fontsize" : 13.0,
					"frgb" : 0.0,
					"id" : "obj-103",
					"maxclass" : "comment",
					"numinlets" : 1,
					"numoutlets" : 0,
					"patching_rect" : [ 552.0, 545.200012, 176.0, 40.0 ],
					"text" : "Output Spectrum for Display"
				}

			}
, 			{
				"box" : 				{
					"bubble" : 1,
					"bubbleside" : 0,
					"fontname" : "Arial",
					"fontsize" : 13.0,
					"frgb" : 0.0,
					"id" : "obj-102",
					"maxclass" : "comment",
					"numinlets" : 1,
					"numoutlets" : 0,
					"patching_rect" : [ 513.0, 379.500061, 114.0, 40.0 ],
					"text" : "Excitation Source"
				}

			}
, 			{
				"box" : 				{
					"fontname" : "Arial",
					"fontsize" : 13.0,
					"frgb" : 0.0,
					"id" : "obj-101",
					"maxclass" : "comment",
					"numinlets" : 1,
					"numoutlets" : 0,
					"patching_rect" : [ 416.0, 541.0, 64.0, 21.0 ],
					"text" : "spectrum",
					"textcolor" : [ 0.501961, 0.501961, 0.501961, 1.0 ]
				}

			}
, 			{
				"box" : 				{
					"fontname" : "Arial",
					"fontsize" : 13.0,
					"frgb" : 0.0,
					"id" : "obj-100",
					"maxclass" : "comment",
					"numinlets" : 1,
					"numoutlets" : 0,
					"patching_rect" : [ 38.0, 497.0, 82.0, 21.0 ],
					"text" : "audio output",
					"textcolor" : [ 0.501961, 0.501961, 0.501961, 1.0 ]
				}

			}
, 			{
				"box" : 				{
					"fontname" : "Arial",
					"fontsize" : 13.0,
					"frgb" : 0.0,
					"id" : "obj-99",
					"linecount" : 5,
					"maxclass" : "comment",
					"numinlets" : 1,
					"numoutlets" : 0,
					"patching_rect" : [ 260.0, 404.0, 120.0, 82.0 ],
					"text" : "for efficiency,\ngraphic updates\nless frequent than\naudio, never at the\nsame time.",
					"textcolor" : [ 0.501961, 0.501961, 0.501961, 1.0 ]
				}

			}
, 			{
				"box" : 				{
					"fontname" : "Arial",
					"fontsize" : 13.0,
					"frgb" : 0.0,
					"id" : "obj-98",
					"maxclass" : "comment",
					"numinlets" : 1,
					"numoutlets" : 0,
					"patching_rect" : [ 38.0, 29.0, 74.0, 21.0 ],
					"text" : "audio input",
					"textcolor" : [ 0.501961, 0.501961, 0.501961, 1.0 ]
				}

			}
, 			{
				"box" : 				{
					"bubble" : 1,
					"bubbleside" : 2,
					"fontname" : "Arial",
					"fontsize" : 13.0,
					"frgb" : 0.0,
					"id" : "obj-97",
					"maxclass" : "comment",
					"numinlets" : 1,
					"numoutlets" : 0,
					"patching_rect" : [ 11.0, 92.0, 135.0, 40.0 ],
					"text" : "Analysis/Resynthesis"
				}

			}
, 			{
				"box" : 				{
					"bubble" : 1,
					"bubbleside" : 2,
					"fontname" : "Arial",
					"fontsize" : 13.0,
					"frgb" : 0.0,
					"id" : "obj-96",
					"maxclass" : "comment",
					"numinlets" : 1,
					"numoutlets" : 0,
					"patching_rect" : [ 241.0, 129.600006, 94.0, 40.0 ],
					"text" : "Master Clock"
				}

			}
, 			{
				"box" : 				{
					"fontname" : "Arial",
					"fontsize" : 13.0,
					"frgb" : 0.0,
					"id" : "obj-86",
					"linecount" : 4,
					"maxclass" : "comment",
					"numinlets" : 1,
					"numoutlets" : 0,
					"patching_rect" : [ 279.100006, 290.0, 152.899994, 67.0 ],
					"text" : "goes to:\nchannels' avg~ object\nand\ndisplay message below",
					"textcolor" : [ 0.501961, 0.501961, 0.501961, 1.0 ]
				}

			}
, 			{
				"box" : 				{
					"fontname" : "Arial",
					"fontsize" : 13.0,
					"frgb" : 0.0,
					"id" : "obj-85",
					"linecount" : 2,
					"maxclass" : "comment",
					"numinlets" : 1,
					"numoutlets" : 0,
					"patching_rect" : [ 279.100006, 208.0, 152.899994, 37.0 ],
					"text" : "Whenever audio is on,\nmetro is on.",
					"textcolor" : [ 0.501961, 0.501961, 0.501961, 1.0 ]
				}

			}
, 			{
				"box" : 				{
					"fontname" : "Arial",
					"fontsize" : 13.0,
					"frgb" : 0.0,
					"id" : "obj-83",
					"linecount" : 2,
					"maxclass" : "comment",
					"numinlets" : 1,
					"numoutlets" : 0,
					"patching_rect" : [ 358.549988, 109.0, 152.899994, 36.0 ],
					"text" : "noise is detected by counting zero crossings.",
					"textcolor" : [ 0.501961, 0.501961, 0.501961, 1.0 ]
				}

			}
, 			{
				"box" : 				{
					"fontname" : "Arial",
					"fontsize" : 13.0,
					"frgb" : 0.0,
					"id" : "obj-80",
					"maxclass" : "comment",
					"numinlets" : 1,
					"numoutlets" : 0,
					"patching_rect" : [ 513.0, 334.0, 375.0, 21.0 ],
					"text" : "selects either pulse train (for vowels), or noise (for consonants)",
					"textcolor" : [ 0.501961, 0.501961, 0.501961, 1.0 ]
				}

			}
, 			{
				"box" : 				{
					"fontname" : "Arial",
					"fontsize" : 13.0,
					"frgb" : 0.0,
					"id" : "obj-79",
					"linecount" : 4,
					"maxclass" : "comment",
					"numinlets" : 1,
					"numoutlets" : 0,
					"patching_rect" : [ 12.0, 532.200012, 375.0, 66.0 ],
					"text" : "The #0 argument generates a unique number for this instance of the classic-vocoder abstraction, so you can have mutliple copies in your master patch. Note that the #0 number is then passed to the classic-channel abstraction as its third argument. ",
					"textcolor" : [ 0.501961, 0.501961, 0.501961, 1.0 ]
				}

			}
, 			{
				"box" : 				{
					"fontname" : "Arial",
					"fontsize" : 13.0,
					"frgb" : 0.0,
					"id" : "obj-78",
					"maxclass" : "comment",
					"numinlets" : 1,
					"numoutlets" : 0,
					"patching_rect" : [ 887.0, 39.0, 49.0, 21.0 ],
					"presentation" : 1,
					"presentation_rect" : [ 854.0, 39.0, 49.0, 21.0 ],
					"text" : "filter Q",
					"textcolor" : [ 0.501961, 0.501961, 0.501961, 1.0 ]
				}

			}
, 			{
				"box" : 				{
					"fontname" : "Arial",
					"fontsize" : 13.0,
					"frgb" : 0.0,
					"id" : "obj-76",
					"linecount" : 2,
					"maxclass" : "comment",
					"numinlets" : 1,
					"numoutlets" : 0,
					"patching_rect" : [ 796.0, 39.0, 67.0, 37.0 ],
					"presentation" : 1,
					"presentation_linecount" : 2,
					"presentation_rect" : [ 787.0, 39.0, 67.0, 37.0 ],
					"text" : "pulse\namplitude",
					"textcolor" : [ 0.501961, 0.501961, 0.501961, 1.0 ]
				}

			}
, 			{
				"box" : 				{
					"fontname" : "Arial",
					"fontsize" : 13.0,
					"frgb" : 0.0,
					"id" : "obj-62",
					"linecount" : 2,
					"maxclass" : "comment",
					"numinlets" : 1,
					"numoutlets" : 0,
					"patching_rect" : [ 727.5, 39.0, 47.0, 37.0 ],
					"presentation" : 1,
					"presentation_linecount" : 2,
					"presentation_rect" : [ 718.5, 39.0, 47.0, 37.0 ],
					"text" : "pulse\nwidth",
					"textcolor" : [ 0.501961, 0.501961, 0.501961, 1.0 ]
				}

			}
, 			{
				"box" : 				{
					"fontname" : "Arial",
					"fontsize" : 13.0,
					"frgb" : 0.0,
					"id" : "obj-56",
					"linecount" : 2,
					"maxclass" : "comment",
					"numinlets" : 1,
					"numoutlets" : 0,
					"patching_rect" : [ 657.850037, 39.0, 47.0, 37.0 ],
					"presentation" : 1,
					"presentation_linecount" : 2,
					"presentation_rect" : [ 648.850037, 39.0, 47.0, 37.0 ],
					"text" : "pulse\nperiod",
					"textcolor" : [ 0.501961, 0.501961, 0.501961, 1.0 ]
				}

			}
, 			{
				"box" : 				{
					"fontname" : "Arial",
					"fontsize" : 13.0,
					"frgb" : 0.0,
					"id" : "obj-41",
					"linecount" : 2,
					"maxclass" : "comment",
					"numinlets" : 1,
					"numoutlets" : 0,
					"patching_rect" : [ 586.5, 39.0, 64.0, 37.0 ],
					"presentation" : 1,
					"presentation_linecount" : 2,
					"presentation_rect" : [ 577.5, 39.0, 64.0, 37.0 ],
					"text" : "noise\nthreshold",
					"textcolor" : [ 0.501961, 0.501961, 0.501961, 1.0 ]
				}

			}
, 			{
				"box" : 				{
					"fontname" : "Arial",
					"fontsize" : 11.595187,
					"id" : "obj-23",
					"maxclass" : "newobj",
					"numinlets" : 1,
					"numoutlets" : 4,
					"outlettype" : [ "", "", "", "" ],
					"patching_rect" : [ 959.0, 74.0, 59.5, 20.0 ],
					"restore" : 					{
						"filter-Q" : [ 29.0 ],
						"noise-threshold" : [ -3.0 ],
						"pulse-amplitude" : [ 11.0 ],
						"pulse-period" : [ 29.0 ],
						"pulse-width" : [ 15.6 ]
					}
,
					"text" : "autopattr",
					"varname" : "u476006331"
				}

			}
, 			{
				"box" : 				{
					"comment" : "filter Q",
					"id" : "obj-94",
					"maxclass" : "outlet",
					"numinlets" : 1,
					"numoutlets" : 0,
					"patching_rect" : [ 999.099976, 579.200012, 25.0, 25.0 ]
				}

			}
, 			{
				"box" : 				{
					"fontname" : "Arial",
					"fontsize" : 11.595187,
					"id" : "obj-95",
					"maxclass" : "newobj",
					"numinlets" : 1,
					"numoutlets" : 1,
					"outlettype" : [ "" ],
					"patching_rect" : [ 999.099976, 553.200012, 87.0, 20.0 ],
					"text" : "prepend set"
				}

			}
, 			{
				"box" : 				{
					"comment" : "pulse amplitude",
					"id" : "obj-92",
					"maxclass" : "outlet",
					"numinlets" : 1,
					"numoutlets" : 0,
					"patching_rect" : [ 973.099976, 579.200012, 25.0, 25.0 ]
				}

			}
, 			{
				"box" : 				{
					"fontname" : "Arial",
					"fontsize" : 11.595187,
					"id" : "obj-93",
					"maxclass" : "newobj",
					"numinlets" : 1,
					"numoutlets" : 1,
					"outlettype" : [ "" ],
					"patching_rect" : [ 973.099976, 532.200012, 87.0, 20.0 ],
					"text" : "prepend set"
				}

			}
, 			{
				"box" : 				{
					"comment" : "pulse width",
					"id" : "obj-90",
					"maxclass" : "outlet",
					"numinlets" : 1,
					"numoutlets" : 0,
					"patching_rect" : [ 947.099976, 579.200012, 25.0, 25.0 ]
				}

			}
, 			{
				"box" : 				{
					"fontname" : "Arial",
					"fontsize" : 11.595187,
					"id" : "obj-91",
					"maxclass" : "newobj",
					"numinlets" : 1,
					"numoutlets" : 1,
					"outlettype" : [ "" ],
					"patching_rect" : [ 947.099976, 511.299988, 87.0, 20.0 ],
					"text" : "prepend set"
				}

			}
, 			{
				"box" : 				{
					"comment" : "pulse period",
					"id" : "obj-88",
					"maxclass" : "outlet",
					"numinlets" : 1,
					"numoutlets" : 0,
					"patching_rect" : [ 921.099976, 578.200012, 25.0, 25.0 ]
				}

			}
, 			{
				"box" : 				{
					"fontname" : "Arial",
					"fontsize" : 11.595187,
					"id" : "obj-89",
					"maxclass" : "newobj",
					"numinlets" : 1,
					"numoutlets" : 1,
					"outlettype" : [ "" ],
					"patching_rect" : [ 921.099976, 490.200012, 87.0, 20.0 ],
					"text" : "prepend set"
				}

			}
, 			{
				"box" : 				{
					"comment" : "noise threshold",
					"id" : "obj-87",
					"maxclass" : "outlet",
					"numinlets" : 1,
					"numoutlets" : 0,
					"patching_rect" : [ 894.099976, 578.200012, 25.0, 25.0 ]
				}

			}
, 			{
				"box" : 				{
					"fontname" : "Arial",
					"fontsize" : 11.595187,
					"id" : "obj-82",
					"maxclass" : "newobj",
					"numinlets" : 1,
					"numoutlets" : 1,
					"outlettype" : [ "" ],
					"patching_rect" : [ 894.099976, 469.200012, 87.0, 20.0 ],
					"text" : "prepend set"
				}

			}
, 			{
				"box" : 				{
					"comment" : "output spectrum(for display)",
					"id" : "obj-73",
					"maxclass" : "outlet",
					"numinlets" : 1,
					"numoutlets" : 0,
					"patching_rect" : [ 390.0, 541.0, 25.0, 25.0 ]
				}

			}
, 			{
				"box" : 				{
					"fontname" : "Arial",
					"fontsize" : 11.595187,
					"id" : "obj-72",
					"maxclass" : "newobj",
					"numinlets" : 15,
					"numoutlets" : 1,
					"outlettype" : [ "" ],
					"patching_rect" : [ 390.0, 516.0, 453.0, 20.0 ],
					"text" : "pack 0 0 0 0 0 0 0 0 0 0 0 0 0 0 0"
				}

			}
, 			{
				"box" : 				{
					"fontname" : "Arial",
					"fontsize" : 11.595187,
					"id" : "obj-70",
					"maxclass" : "newobj",
					"numinlets" : 2,
					"numoutlets" : 1,
					"outlettype" : [ "bang" ],
					"patching_rect" : [ 208.0, 472.0, 54.0, 20.0 ],
					"text" : "delay 10"
				}

			}
, 			{
				"box" : 				{
					"fontname" : "Arial",
					"fontsize" : 11.595187,
					"id" : "obj-69",
					"maxclass" : "newobj",
					"numinlets" : 2,
					"numoutlets" : 2,
					"outlettype" : [ "bang", "" ],
					"patching_rect" : [ 208.0, 447.0, 35.0, 20.0 ],
					"text" : "sel 0"
				}

			}
, 			{
				"box" : 				{
					"id" : "obj-68",
					"maxclass" : "toggle",
					"numinlets" : 1,
					"numoutlets" : 1,
					"outlettype" : [ "int" ],
					"parameter_enable" : 0,
					"patching_rect" : [ 208.0, 422.0, 20.0, 20.0 ]
				}

			}
, 			{
				"box" : 				{
					"color" : [ 0.082353, 0.431373, 0.411765, 1.0 ],
					"fontname" : "Arial",
					"fontsize" : 11.595187,
					"id" : "obj-67",
					"linecount" : 3,
					"maxclass" : "newobj",
					"numinlets" : 0,
					"numoutlets" : 1,
					"outlettype" : [ "" ],
					"patching_rect" : [ 208.0, 396.0, 55.0, 20.0 ],
					"text" : "r #0-lock"
				}

			}
, 			{
				"box" : 				{
					"fontname" : "Arial",
					"fontsize" : 11.595187,
					"id" : "obj-66",
					"maxclass" : "message",
					"numinlets" : 2,
					"numoutlets" : 1,
					"outlettype" : [ "" ],
					"patching_rect" : [ 390.0, 485.0, 42.0, 18.0 ],
					"text" : "set $1"
				}

			}
, 			{
				"box" : 				{
					"fontname" : "Arial",
					"fontsize" : 11.595187,
					"id" : "obj-65",
					"maxclass" : "newobj",
					"numinlets" : 16,
					"numoutlets" : 16,
					"outlettype" : [ "", "", "", "", "", "", "", "", "", "", "", "", "", "", "", "" ],
					"patching_rect" : [ 390.0, 451.0, 484.0, 20.0 ],
					"text" : "route 1 2 3 4 5 6 7 8 9 10 11 12 13 14 15"
				}

			}
, 			{
				"box" : 				{
					"fontname" : "Arial",
					"fontsize" : 11.595187,
					"id" : "obj-64",
					"maxclass" : "newobj",
					"numinlets" : 0,
					"numoutlets" : 1,
					"outlettype" : [ "" ],
					"patching_rect" : [ 390.0, 422.0, 90.0, 20.0 ],
					"text" : "r #0-energy"
				}

			}
, 			{
				"box" : 				{
					"color" : [ 0.082353, 0.431373, 0.411765, 1.0 ],
					"fontname" : "Arial",
					"fontsize" : 11.595187,
					"id" : "obj-61",
					"maxclass" : "newobj",
					"numinlets" : 1,
					"numoutlets" : 0,
					"patching_rect" : [ 260.0, 267.399994, 84.0, 20.0 ],
					"text" : "s #0-lock"
				}

			}
, 			{
				"box" : 				{
					"color" : [ 0.082353, 0.431373, 0.411765, 1.0 ],
					"fontname" : "Arial",
					"fontsize" : 11.595187,
					"id" : "obj-60",
					"maxclass" : "newobj",
					"numinlets" : 2,
					"numoutlets" : 1,
					"outlettype" : [ "bang" ],
					"patching_rect" : [ 260.0, 241.399994, 56.0, 20.0 ],
					"text" : "metro 20"
				}

			}
, 			{
				"box" : 				{
					"fontname" : "Arial",
					"fontsize" : 11.595187,
					"id" : "obj-59",
					"maxclass" : "newobj",
					"numinlets" : 1,
					"numoutlets" : 4,
					"outlettype" : [ "int", "float", "int", "int" ],
					"patching_rect" : [ 260.0, 183.400009, 61.0, 20.0 ],
					"text" : "dspstate~"
				}

			}
, 			{
				"box" : 				{
					"fontname" : "Arial",
					"fontsize" : 11.595187,
					"id" : "obj-54",
					"maxclass" : "message",
					"numinlets" : 2,
					"numoutlets" : 1,
					"outlettype" : [ "" ],
					"patching_rect" : [ 647.0, 182.0, 38.0, 18.0 ],
					"text" : "$1 20"
				}

			}
, 			{
				"box" : 				{
					"color" : [ 0.082353, 0.431373, 0.411765, 1.0 ],
					"fontname" : "Arial",
					"fontsize" : 11.595187,
					"id" : "obj-53",
					"maxclass" : "newobj",
					"numinlets" : 1,
					"numoutlets" : 1,
					"outlettype" : [ "signal" ],
					"patching_rect" : [ 791.0, 290.0, 43.0, 20.0 ],
					"text" : "noise~"
				}

			}
, 			{
				"box" : 				{
					"fontname" : "Arial",
					"fontsize" : 11.595187,
					"id" : "obj-52",
					"maxclass" : "newobj",
					"numinlets" : 2,
					"numoutlets" : 1,
					"outlettype" : [ "signal" ],
					"patching_rect" : [ 647.0, 263.0, 170.0, 20.0 ],
					"text" : "*~ 1."
				}

			}
, 			{
				"box" : 				{
					"color" : [ 0.082353, 0.431373, 0.411765, 1.0 ],
					"fontname" : "Arial",
					"fontsize" : 11.595187,
					"id" : "obj-51",
					"maxclass" : "newobj",
					"numinlets" : 3,
					"numoutlets" : 2,
					"outlettype" : [ "signal", "bang" ],
					"patching_rect" : [ 647.0, 236.0, 157.0, 20.0 ],
					"text" : "train~ 12 0.75"
				}

			}
, 			{
				"box" : 				{
					"fontname" : "Arial",
					"fontsize" : 11.595187,
					"id" : "obj-50",
					"maxclass" : "newobj",
					"numinlets" : 3,
					"numoutlets" : 1,
					"outlettype" : [ "" ],
					"patching_rect" : [ 716.0, 208.0, 78.0, 20.0 ],
					"text" : "clip 0.01 0.99"
				}

			}
, 			{
				"box" : 				{
					"fontname" : "Arial",
					"fontsize" : 11.595187,
					"id" : "obj-49",
					"maxclass" : "newobj",
					"numinlets" : 2,
					"numoutlets" : 2,
					"outlettype" : [ "signal", "bang" ],
					"patching_rect" : [ 647.0, 208.0, 56.0, 20.0 ],
					"text" : "line~ 200"
				}

			}
, 			{
				"box" : 				{
					"fontname" : "Arial",
					"fontsize" : 11.595187,
					"id" : "obj-48",
					"linecount" : 2,
					"maxclass" : "newobj",
					"numinlets" : 1,
					"numoutlets" : 0,
					"patching_rect" : [ 503.0, 357.0, 140.0, 20.0 ],
					"text" : "send~ #0-resynth_source"
				}

			}
, 			{
				"box" : 				{
					"color" : [ 0.082353, 0.431373, 0.411765, 1.0 ],
					"fontname" : "Arial",
					"fontsize" : 11.595187,
					"id" : "obj-47",
					"maxclass" : "newobj",
					"numinlets" : 3,
					"numoutlets" : 1,
					"outlettype" : [ "signal" ],
					"patching_rect" : [ 503.0, 314.0, 306.899994, 20.0 ],
					"text" : "selector~ 2 0"
				}

			}
, 			{
				"box" : 				{
					"fontname" : "Arial",
					"fontsize" : 11.595187,
					"id" : "obj-46",
					"maxclass" : "newobj",
					"numinlets" : 2,
					"numoutlets" : 1,
					"outlettype" : [ "signal" ],
					"patching_rect" : [ 503.0, 271.0, 37.0, 20.0 ],
					"text" : "+~ 1."
				}

			}
, 			{
				"box" : 				{
					"fontname" : "Arial",
					"fontsize" : 11.595187,
					"id" : "obj-45",
					"maxclass" : "newobj",
					"numinlets" : 2,
					"numoutlets" : 1,
					"outlettype" : [ "signal" ],
					"patching_rect" : [ 503.0, 245.0, 94.0, 20.0 ],
					"text" : ">~ 0.1"
				}

			}
, 			{
				"box" : 				{
					"fontname" : "Arial",
					"fontsize" : 11.595187,
					"id" : "obj-44",
					"maxclass" : "newobj",
					"numinlets" : 2,
					"numoutlets" : 1,
					"outlettype" : [ "signal" ],
					"patching_rect" : [ 503.0, 219.0, 64.0, 20.0 ],
					"text" : "/~ 64"
				}

			}
, 			{
				"box" : 				{
					"fontname" : "Arial",
					"fontsize" : 11.595187,
					"id" : "obj-43",
					"maxclass" : "newobj",
					"numinlets" : 1,
					"numoutlets" : 4,
					"outlettype" : [ "int", "float", "int", "int" ],
					"patching_rect" : [ 520.0, 188.0, 61.0, 20.0 ],
					"text" : "dspstate~"
				}

			}
, 			{
				"box" : 				{
					"color" : [ 0.082353, 0.431373, 0.411765, 1.0 ],
					"fontname" : "Arial",
					"fontsize" : 11.595187,
					"id" : "obj-42",
					"maxclass" : "newobj",
					"numinlets" : 1,
					"numoutlets" : 2,
					"outlettype" : [ "signal", "signal" ],
					"patching_rect" : [ 503.0, 151.0, 46.0, 20.0 ],
					"text" : "zerox~"
				}

			}
, 			{
				"box" : 				{
					"fontname" : "Arial",
					"fontsize" : 11.595187,
					"id" : "obj-40",
					"maxclass" : "newobj",
					"numinlets" : 1,
					"numoutlets" : 0,
					"patching_rect" : [ 879.099976, 129.600006, 92.0, 20.0 ],
					"text" : "s #0-filter_Q"
				}

			}
, 			{
				"box" : 				{
					"fontface" : 1,
					"fontname" : "Arial",
					"fontsize" : 11.595187,
					"id" : "obj-39",
					"maxclass" : "flonum",
					"numinlets" : 1,
					"numoutlets" : 2,
					"outlettype" : [ "float", "bang" ],
					"parameter_enable" : 0,
					"patching_rect" : [ 578.0, 76.0, 50.0, 20.0 ],
					"presentation" : 1,
					"presentation_rect" : [ 578.0, 76.0, 50.0, 20.0 ],
					"varname" : "noise-threshold"
				}

			}
, 			{
				"box" : 				{
					"fontface" : 1,
					"fontname" : "Arial",
					"fontsize" : 11.595187,
					"id" : "obj-38",
					"maxclass" : "flonum",
					"numinlets" : 1,
					"numoutlets" : 2,
					"outlettype" : [ "float", "bang" ],
					"parameter_enable" : 0,
					"patching_rect" : [ 647.0, 76.0, 50.0, 20.0 ],
					"presentation" : 1,
					"presentation_rect" : [ 647.0, 76.0, 50.0, 20.0 ],
					"varname" : "pulse-period"
				}

			}
, 			{
				"box" : 				{
					"fontface" : 1,
					"fontname" : "Arial",
					"fontsize" : 11.595187,
					"id" : "obj-37",
					"maxclass" : "flonum",
					"numinlets" : 1,
					"numoutlets" : 2,
					"outlettype" : [ "float", "bang" ],
					"parameter_enable" : 0,
					"patching_rect" : [ 716.0, 76.0, 50.0, 20.0 ],
					"presentation" : 1,
					"presentation_rect" : [ 716.0, 76.0, 50.0, 20.0 ],
					"varname" : "pulse-width"
				}

			}
, 			{
				"box" : 				{
					"fontface" : 1,
					"fontname" : "Arial",
					"fontsize" : 11.595187,
					"id" : "obj-36",
					"maxclass" : "flonum",
					"numinlets" : 1,
					"numoutlets" : 2,
					"outlettype" : [ "float", "bang" ],
					"parameter_enable" : 0,
					"patching_rect" : [ 785.0, 76.0, 50.0, 20.0 ],
					"presentation" : 1,
					"presentation_rect" : [ 785.0, 76.0, 50.0, 20.0 ],
					"varname" : "pulse-amplitude"
				}

			}
, 			{
				"box" : 				{
					"fontface" : 1,
					"fontname" : "Arial",
					"fontsize" : 11.595187,
					"id" : "obj-35",
					"maxclass" : "flonum",
					"numinlets" : 1,
					"numoutlets" : 2,
					"outlettype" : [ "float", "bang" ],
					"parameter_enable" : 0,
					"patching_rect" : [ 878.0, 76.0, 50.0, 20.0 ],
					"presentation" : 1,
					"presentation_rect" : [ 854.0, 76.0, 50.0, 20.0 ],
					"varname" : "filter-Q"
				}

			}
, 			{
				"box" : 				{
					"comment" : "filter Q",
					"id" : "obj-29",
					"maxclass" : "inlet",
					"numinlets" : 0,
					"numoutlets" : 1,
					"outlettype" : [ "float" ],
					"patching_rect" : [ 878.0, 3.0, 25.0, 25.0 ]
				}

			}
, 			{
				"box" : 				{
					"comment" : "pulse amplitude",
					"id" : "obj-28",
					"maxclass" : "inlet",
					"numinlets" : 0,
					"numoutlets" : 1,
					"outlettype" : [ "float" ],
					"patching_rect" : [ 785.0, 3.0, 25.0, 25.0 ]
				}

			}
, 			{
				"box" : 				{
					"comment" : "pulse width",
					"id" : "obj-27",
					"maxclass" : "inlet",
					"numinlets" : 0,
					"numoutlets" : 1,
					"outlettype" : [ "float" ],
					"patching_rect" : [ 716.0, 3.0, 25.0, 25.0 ]
				}

			}
, 			{
				"box" : 				{
					"comment" : "pulse period",
					"id" : "obj-26",
					"maxclass" : "inlet",
					"numinlets" : 0,
					"numoutlets" : 1,
					"outlettype" : [ "float" ],
					"patching_rect" : [ 647.0, 3.0, 25.0, 25.0 ]
				}

			}
, 			{
				"box" : 				{
					"comment" : "noise threshold",
					"id" : "obj-25",
					"maxclass" : "inlet",
					"numinlets" : 0,
					"numoutlets" : 1,
					"outlettype" : [ "float" ],
					"patching_rect" : [ 578.0, 3.0, 25.0, 25.0 ]
				}

			}
, 			{
				"box" : 				{
					"comment" : "audio output",
					"id" : "obj-20",
					"maxclass" : "outlet",
					"numinlets" : 1,
					"numoutlets" : 0,
					"patching_rect" : [ 11.0, 496.0, 25.0, 25.0 ]
				}

			}
, 			{
				"box" : 				{
					"fontname" : "Arial",
					"fontsize" : 11.595187,
					"id" : "obj-19",
					"maxclass" : "newobj",
					"numinlets" : 1,
					"numoutlets" : 1,
					"outlettype" : [ "signal" ],
					"patching_rect" : [ 11.0, 467.0, 155.5, 20.0 ],
					"text" : "receive~ #0-global_out"
				}

			}
, 			{
				"box" : 				{
					"fontname" : "Arial",
					"fontsize" : 11.595187,
					"id" : "obj-18",
					"maxclass" : "newobj",
					"numinlets" : 0,
					"numoutlets" : 0,
					"patching_rect" : [ 11.0, 438.0, 171.5, 20.0 ],
					"text" : "classic-channel 4300 15 #0"
				}

			}
, 			{
				"box" : 				{
					"fontname" : "Arial",
					"fontsize" : 11.595187,
					"id" : "obj-17",
					"maxclass" : "newobj",
					"numinlets" : 0,
					"numoutlets" : 0,
					"patching_rect" : [ 11.0, 416.0, 171.5, 20.0 ],
					"text" : "classic-channel 3500 14 #0"
				}

			}
, 			{
				"box" : 				{
					"fontname" : "Arial",
					"fontsize" : 11.595187,
					"id" : "obj-16",
					"maxclass" : "newobj",
					"numinlets" : 0,
					"numoutlets" : 0,
					"patching_rect" : [ 11.0, 394.0, 171.5, 20.0 ],
					"text" : "classic-channel 2950 13 #0"
				}

			}
, 			{
				"box" : 				{
					"fontname" : "Arial",
					"fontsize" : 11.595187,
					"id" : "obj-15",
					"maxclass" : "newobj",
					"numinlets" : 0,
					"numoutlets" : 0,
					"patching_rect" : [ 11.0, 372.0, 171.5, 20.0 ],
					"text" : "classic-channel 2300 12 #0"
				}

			}
, 			{
				"box" : 				{
					"fontname" : "Arial",
					"fontsize" : 11.595187,
					"id" : "obj-14",
					"maxclass" : "newobj",
					"numinlets" : 0,
					"numoutlets" : 0,
					"patching_rect" : [ 11.0, 350.0, 171.5, 20.0 ],
					"text" : "classic-channel 1750 11 #0"
				}

			}
, 			{
				"box" : 				{
					"fontname" : "Arial",
					"fontsize" : 11.595187,
					"id" : "obj-13",
					"maxclass" : "newobj",
					"numinlets" : 0,
					"numoutlets" : 0,
					"patching_rect" : [ 11.0, 328.0, 170.399994, 20.0 ],
					"text" : "classic-channel 1400 10 #0"
				}

			}
, 			{
				"box" : 				{
					"fontname" : "Arial",
					"fontsize" : 11.595187,
					"id" : "obj-12",
					"maxclass" : "newobj",
					"numinlets" : 0,
					"numoutlets" : 0,
					"patching_rect" : [ 11.0, 306.0, 171.099991, 20.0 ],
					"text" : "classic-channel 1100 9 #0"
				}

			}
, 			{
				"box" : 				{
					"fontname" : "Arial",
					"fontsize" : 11.595187,
					"id" : "obj-11",
					"maxclass" : "newobj",
					"numinlets" : 0,
					"numoutlets" : 0,
					"patching_rect" : [ 11.0, 284.0, 171.099991, 20.0 ],
					"text" : "classic-channel 1000 8 #0"
				}

			}
, 			{
				"box" : 				{
					"fontname" : "Arial",
					"fontsize" : 11.595187,
					"id" : "obj-10",
					"maxclass" : "newobj",
					"numinlets" : 0,
					"numoutlets" : 0,
					"patching_rect" : [ 11.0, 262.0, 170.599991, 20.0 ],
					"text" : "classic-channel 880 7 #0"
				}

			}
, 			{
				"box" : 				{
					"fontname" : "Arial",
					"fontsize" : 11.595187,
					"id" : "obj-9",
					"maxclass" : "newobj",
					"numinlets" : 0,
					"numoutlets" : 0,
					"patching_rect" : [ 11.0, 240.0, 168.399994, 20.0 ],
					"text" : "classic-channel 700 6 #0"
				}

			}
, 			{
				"box" : 				{
					"fontname" : "Arial",
					"fontsize" : 11.595187,
					"id" : "obj-8",
					"maxclass" : "newobj",
					"numinlets" : 0,
					"numoutlets" : 0,
					"patching_rect" : [ 11.0, 218.0, 168.399994, 20.0 ],
					"text" : "classic-channel 550 5 #0"
				}

			}
, 			{
				"box" : 				{
					"fontname" : "Arial",
					"fontsize" : 11.595187,
					"id" : "obj-7",
					"maxclass" : "newobj",
					"numinlets" : 0,
					"numoutlets" : 0,
					"patching_rect" : [ 11.0, 196.0, 168.399994, 20.0 ],
					"text" : "classic-channel 345 4 #0"
				}

			}
, 			{
				"box" : 				{
					"fontname" : "Arial",
					"fontsize" : 11.595187,
					"id" : "obj-6",
					"maxclass" : "newobj",
					"numinlets" : 0,
					"numoutlets" : 0,
					"patching_rect" : [ 11.0, 174.0, 168.399994, 20.0 ],
					"text" : "classic-channel 265 3 #0"
				}

			}
, 			{
				"box" : 				{
					"fontname" : "Arial",
					"fontsize" : 11.595187,
					"id" : "obj-5",
					"maxclass" : "newobj",
					"numinlets" : 0,
					"numoutlets" : 0,
					"patching_rect" : [ 11.0, 152.0, 168.399994, 20.0 ],
					"text" : "classic-channel 220 2 #0"
				}

			}
, 			{
				"box" : 				{
					"fontname" : "Arial",
					"fontsize" : 11.595187,
					"id" : "obj-4",
					"maxclass" : "newobj",
					"numinlets" : 0,
					"numoutlets" : 0,
					"patching_rect" : [ 11.0, 130.0, 168.399994, 20.0 ],
					"text" : "classic-channel 175 1 #0"
				}

			}
, 			{
				"box" : 				{
					"fontname" : "Arial",
					"fontsize" : 11.595187,
					"id" : "obj-2",
					"maxclass" : "newobj",
					"numinlets" : 1,
					"numoutlets" : 0,
					"patching_rect" : [ 11.0, 65.0, 141.899994, 20.0 ],
					"text" : "send~ #0-filterInput"
				}

			}
, 			{
				"box" : 				{
					"comment" : "audio input",
					"id" : "obj-1",
					"maxclass" : "inlet",
					"numinlets" : 0,
					"numoutlets" : 1,
					"outlettype" : [ "signal" ],
					"patching_rect" : [ 11.0, 26.0, 25.0, 25.0 ]
				}

			}
 ],
		"lines" : [ 			{
				"patchline" : 				{
					"destination" : [ "obj-2", 0 ],
					"disabled" : 0,
					"hidden" : 0,
					"source" : [ "obj-1", 0 ]
				}

			}
, 			{
				"patchline" : 				{
					"destination" : [ "obj-42", 0 ],
					"disabled" : 0,
					"hidden" : 0,
					"midpoints" : [ 20.5, 63.0, 512.5, 63.0 ],
					"source" : [ "obj-1", 0 ]
				}

			}
, 			{
				"patchline" : 				{
					"destination" : [ "obj-20", 0 ],
					"disabled" : 0,
					"hidden" : 0,
					"source" : [ "obj-19", 0 ]
				}

			}
, 			{
				"patchline" : 				{
					"destination" : [ "obj-39", 0 ],
					"disabled" : 0,
					"hidden" : 0,
					"source" : [ "obj-25", 0 ]
				}

			}
, 			{
				"patchline" : 				{
					"destination" : [ "obj-38", 0 ],
					"disabled" : 0,
					"hidden" : 0,
					"source" : [ "obj-26", 0 ]
				}

			}
, 			{
				"patchline" : 				{
					"destination" : [ "obj-37", 0 ],
					"disabled" : 0,
					"hidden" : 0,
					"source" : [ "obj-27", 0 ]
				}

			}
, 			{
				"patchline" : 				{
					"destination" : [ "obj-36", 0 ],
					"disabled" : 0,
					"hidden" : 0,
					"source" : [ "obj-28", 0 ]
				}

			}
, 			{
				"patchline" : 				{
					"destination" : [ "obj-35", 0 ],
					"disabled" : 0,
					"hidden" : 0,
					"source" : [ "obj-29", 0 ]
				}

			}
, 			{
				"patchline" : 				{
					"destination" : [ "obj-40", 0 ],
					"disabled" : 0,
					"hidden" : 0,
					"source" : [ "obj-35", 0 ]
				}

			}
, 			{
				"patchline" : 				{
					"color" : [ 0.827451, 0.364706, 0.541176, 1.0 ],
					"destination" : [ "obj-95", 0 ],
					"disabled" : 0,
					"hidden" : 1,
					"source" : [ "obj-35", 0 ]
				}

			}
, 			{
				"patchline" : 				{
					"destination" : [ "obj-52", 1 ],
					"disabled" : 0,
					"hidden" : 0,
					"source" : [ "obj-36", 0 ]
				}

			}
, 			{
				"patchline" : 				{
					"color" : [ 0.827451, 0.364706, 0.541176, 1.0 ],
					"destination" : [ "obj-93", 0 ],
					"disabled" : 0,
					"hidden" : 1,
					"source" : [ "obj-36", 0 ]
				}

			}
, 			{
				"patchline" : 				{
					"destination" : [ "obj-50", 0 ],
					"disabled" : 0,
					"hidden" : 0,
					"source" : [ "obj-37", 0 ]
				}

			}
, 			{
				"patchline" : 				{
					"color" : [ 0.827451, 0.364706, 0.541176, 1.0 ],
					"destination" : [ "obj-91", 0 ],
					"disabled" : 0,
					"hidden" : 1,
					"source" : [ "obj-37", 0 ]
				}

			}
, 			{
				"patchline" : 				{
					"destination" : [ "obj-54", 0 ],
					"disabled" : 0,
					"hidden" : 0,
					"source" : [ "obj-38", 0 ]
				}

			}
, 			{
				"patchline" : 				{
					"color" : [ 0.827451, 0.364706, 0.541176, 1.0 ],
					"destination" : [ "obj-89", 0 ],
					"disabled" : 0,
					"hidden" : 1,
					"source" : [ "obj-38", 0 ]
				}

			}
, 			{
				"patchline" : 				{
					"destination" : [ "obj-45", 1 ],
					"disabled" : 0,
					"hidden" : 0,
					"source" : [ "obj-39", 0 ]
				}

			}
, 			{
				"patchline" : 				{
					"color" : [ 0.827451, 0.364706, 0.541176, 1.0 ],
					"destination" : [ "obj-82", 0 ],
					"disabled" : 0,
					"hidden" : 1,
					"source" : [ "obj-39", 0 ]
				}

			}
, 			{
				"patchline" : 				{
					"destination" : [ "obj-44", 0 ],
					"disabled" : 0,
					"hidden" : 0,
					"source" : [ "obj-42", 0 ]
				}

			}
, 			{
				"patchline" : 				{
					"destination" : [ "obj-44", 1 ],
					"disabled" : 0,
					"hidden" : 0,
					"source" : [ "obj-43", 2 ]
				}

			}
, 			{
				"patchline" : 				{
					"destination" : [ "obj-45", 0 ],
					"disabled" : 0,
					"hidden" : 0,
					"source" : [ "obj-44", 0 ]
				}

			}
, 			{
				"patchline" : 				{
					"destination" : [ "obj-46", 0 ],
					"disabled" : 0,
					"hidden" : 0,
					"source" : [ "obj-45", 0 ]
				}

			}
, 			{
				"patchline" : 				{
					"destination" : [ "obj-47", 0 ],
					"disabled" : 0,
					"hidden" : 0,
					"source" : [ "obj-46", 0 ]
				}

			}
, 			{
				"patchline" : 				{
					"destination" : [ "obj-48", 0 ],
					"disabled" : 0,
					"hidden" : 0,
					"source" : [ "obj-47", 0 ]
				}

			}
, 			{
				"patchline" : 				{
					"destination" : [ "obj-51", 0 ],
					"disabled" : 0,
					"hidden" : 0,
					"source" : [ "obj-49", 0 ]
				}

			}
, 			{
				"patchline" : 				{
					"destination" : [ "obj-51", 1 ],
					"disabled" : 0,
					"hidden" : 0,
					"source" : [ "obj-50", 0 ]
				}

			}
, 			{
				"patchline" : 				{
					"destination" : [ "obj-52", 0 ],
					"disabled" : 0,
					"hidden" : 0,
					"source" : [ "obj-51", 0 ]
				}

			}
, 			{
				"patchline" : 				{
					"destination" : [ "obj-47", 1 ],
					"disabled" : 0,
					"hidden" : 0,
					"source" : [ "obj-52", 0 ]
				}

			}
, 			{
				"patchline" : 				{
					"destination" : [ "obj-47", 2 ],
					"disabled" : 0,
					"hidden" : 0,
					"source" : [ "obj-53", 0 ]
				}

			}
, 			{
				"patchline" : 				{
					"destination" : [ "obj-49", 0 ],
					"disabled" : 0,
					"hidden" : 0,
					"source" : [ "obj-54", 0 ]
				}

			}
, 			{
				"patchline" : 				{
					"destination" : [ "obj-60", 0 ],
					"disabled" : 0,
					"hidden" : 0,
					"source" : [ "obj-59", 0 ]
				}

			}
, 			{
				"patchline" : 				{
					"destination" : [ "obj-61", 0 ],
					"disabled" : 0,
					"hidden" : 0,
					"source" : [ "obj-60", 0 ]
				}

			}
, 			{
				"patchline" : 				{
					"destination" : [ "obj-65", 0 ],
					"disabled" : 0,
					"hidden" : 0,
					"source" : [ "obj-64", 0 ]
				}

			}
, 			{
				"patchline" : 				{
					"destination" : [ "obj-66", 0 ],
					"disabled" : 0,
					"hidden" : 0,
					"source" : [ "obj-65", 0 ]
				}

			}
, 			{
				"patchline" : 				{
					"destination" : [ "obj-72", 14 ],
					"disabled" : 0,
					"hidden" : 0,
					"source" : [ "obj-65", 14 ]
				}

			}
, 			{
				"patchline" : 				{
					"destination" : [ "obj-72", 13 ],
					"disabled" : 0,
					"hidden" : 0,
					"source" : [ "obj-65", 13 ]
				}

			}
, 			{
				"patchline" : 				{
					"destination" : [ "obj-72", 12 ],
					"disabled" : 0,
					"hidden" : 0,
					"source" : [ "obj-65", 12 ]
				}

			}
, 			{
				"patchline" : 				{
					"destination" : [ "obj-72", 11 ],
					"disabled" : 0,
					"hidden" : 0,
					"source" : [ "obj-65", 11 ]
				}

			}
, 			{
				"patchline" : 				{
					"destination" : [ "obj-72", 10 ],
					"disabled" : 0,
					"hidden" : 0,
					"source" : [ "obj-65", 10 ]
				}

			}
, 			{
				"patchline" : 				{
					"destination" : [ "obj-72", 9 ],
					"disabled" : 0,
					"hidden" : 0,
					"source" : [ "obj-65", 9 ]
				}

			}
, 			{
				"patchline" : 				{
					"destination" : [ "obj-72", 8 ],
					"disabled" : 0,
					"hidden" : 0,
					"source" : [ "obj-65", 8 ]
				}

			}
, 			{
				"patchline" : 				{
					"destination" : [ "obj-72", 7 ],
					"disabled" : 0,
					"hidden" : 0,
					"source" : [ "obj-65", 7 ]
				}

			}
, 			{
				"patchline" : 				{
					"destination" : [ "obj-72", 6 ],
					"disabled" : 0,
					"hidden" : 0,
					"source" : [ "obj-65", 6 ]
				}

			}
, 			{
				"patchline" : 				{
					"destination" : [ "obj-72", 5 ],
					"disabled" : 0,
					"hidden" : 0,
					"source" : [ "obj-65", 5 ]
				}

			}
, 			{
				"patchline" : 				{
					"destination" : [ "obj-72", 4 ],
					"disabled" : 0,
					"hidden" : 0,
					"source" : [ "obj-65", 4 ]
				}

			}
, 			{
				"patchline" : 				{
					"destination" : [ "obj-72", 3 ],
					"disabled" : 0,
					"hidden" : 0,
					"source" : [ "obj-65", 3 ]
				}

			}
, 			{
				"patchline" : 				{
					"destination" : [ "obj-72", 2 ],
					"disabled" : 0,
					"hidden" : 0,
					"source" : [ "obj-65", 2 ]
				}

			}
, 			{
				"patchline" : 				{
					"destination" : [ "obj-72", 1 ],
					"disabled" : 0,
					"hidden" : 0,
					"source" : [ "obj-65", 1 ]
				}

			}
, 			{
				"patchline" : 				{
					"destination" : [ "obj-72", 0 ],
					"disabled" : 0,
					"hidden" : 0,
					"source" : [ "obj-66", 0 ]
				}

			}
, 			{
				"patchline" : 				{
					"destination" : [ "obj-68", 0 ],
					"disabled" : 0,
					"hidden" : 0,
					"source" : [ "obj-67", 0 ]
				}

			}
, 			{
				"patchline" : 				{
					"destination" : [ "obj-69", 0 ],
					"disabled" : 0,
					"hidden" : 0,
					"source" : [ "obj-68", 0 ]
				}

			}
, 			{
				"patchline" : 				{
					"destination" : [ "obj-70", 0 ],
					"disabled" : 0,
					"hidden" : 0,
					"source" : [ "obj-69", 0 ]
				}

			}
, 			{
				"patchline" : 				{
					"destination" : [ "obj-72", 0 ],
					"disabled" : 0,
					"hidden" : 0,
					"midpoints" : [ 217.5, 510.0, 399.5, 510.0 ],
					"source" : [ "obj-70", 0 ]
				}

			}
, 			{
				"patchline" : 				{
					"destination" : [ "obj-73", 0 ],
					"disabled" : 0,
					"hidden" : 0,
					"source" : [ "obj-72", 0 ]
				}

			}
, 			{
				"patchline" : 				{
					"destination" : [ "obj-87", 0 ],
					"disabled" : 0,
					"hidden" : 0,
					"source" : [ "obj-82", 0 ]
				}

			}
, 			{
				"patchline" : 				{
					"destination" : [ "obj-88", 0 ],
					"disabled" : 0,
					"hidden" : 0,
					"source" : [ "obj-89", 0 ]
				}

			}
, 			{
				"patchline" : 				{
					"destination" : [ "obj-90", 0 ],
					"disabled" : 0,
					"hidden" : 0,
					"source" : [ "obj-91", 0 ]
				}

			}
, 			{
				"patchline" : 				{
					"destination" : [ "obj-92", 0 ],
					"disabled" : 0,
					"hidden" : 0,
					"source" : [ "obj-93", 0 ]
				}

			}
, 			{
				"patchline" : 				{
					"destination" : [ "obj-94", 0 ],
					"disabled" : 0,
					"hidden" : 0,
					"source" : [ "obj-95", 0 ]
				}

			}
 ]
	}

}
